<?xml version="1.0" encoding="iso-8859-1"?>
<!-- Generator: Adobe Illustrator 16.0.0, SVG Export Plug-In . SVG Version: 6.00 Build 0)  -->
<!DOCTYPE svg PUBLIC "-//W3C//DTD SVG 1.1//EN" "http://www.w3.org/Graphics/SVG/1.1/DTD/svg11.dtd">
<svg version="1.1" id="Capa_1" xmlns="http://www.w3.org/2000/svg" xmlns:xlink="http://www.w3.org/1999/xlink" x="0px" y="0px"
	 width="305.716px" height="305.716px" viewBox="0 0 305.716 305.716" style="enable-background:new 0 0 305.716 305.716;"
	 xml:space="preserve">
<g>
	<path d="M257.522,219.373l13.618-13.625c5.213-5.206,5.213-13.644,0-18.849c-5.193-5.201-13.643-5.201-18.849,0l-2.624,2.623
		l-39.199-39.199l90.168-90.162l-12.725-44.886L243.026,2.558l-90.171,90.15L62.684,2.54L17.801,15.255L5.08,60.144l90.18,90.174
		l-39.211,39.218l-2.621-2.624c-5.206-5.2-13.649-5.2-18.852,0c-5.209,5.2-5.209,13.648,0,18.849l13.607,13.625L0,267.556
		l35.615,35.62l48.188-48.183l13.609,13.619c5.207,5.212,13.649,5.212,18.853,0c5.206-5.206,5.206-13.648,0-18.85l-2.621-2.624
		l39.22-39.223l39.206,39.211l-2.618,2.618c-5.212,5.206-5.212,13.654,0,18.843c5.2,5.219,13.643,5.219,18.849,0l13.613-13.606
		l48.183,48.183l35.62-35.608L257.522,219.373z"/>
</g>
<g>
</g>
<g>
</g>
<g>
</g>
<g>
</g>
<g>
</g>
<g>
</g>
<g>
</g>
<g>
</g>
<g>
</g>
<g>
</g>
<g>
</g>
<g>
</g>
<g>
</g>
<g>
</g>
<g>
</g>
</svg>
